/* XPM */
static char * bottom_right_inactive_xpm[] = {
"12 12 5 1",
" 	c None",
".	c #000000 s inactive_border_color",
"@	c #CCC9C2 s inactive_color_2",
"#	c #938E84 s inactive_shadow_2",
"-  c #000000",
"        @@#-",
"        @@#-",
"        @@#-",
"        @@#-",
"        @@#-",
"        @@#-",
"        @@#-",
"        @@#-",
"@@@@@@@@@@#-",
"@@@@@@@@@@#-",
"###########-",
"------------"};
