/* XPM */
static char * close_pressed_xpm[] = {
"18 24 6 1",
"       c None",
".      c #000000 s active_border_color",
"+      c #837F78 s active_shadow_2",
"@      c #B8B5AF s active_color_2",
"#      c #EBEAE8 s active_hilight_2",
"-      c #000000",
"                  ",
"                  ",
"                  ",
"                  ",
"                  ",
"                  ",
"  ++++++++++++++++",
"  +--------------#",
"  +-@@@@@@@@@@@@@#",
"  +-@@@@@@@@@@@@@#",
"  +-@@@..@@@@..@@#",
"  +-@@@@..@@..@@@#",
"  +-@@@@@....@@@@#",
"  +-@@@@@@..@@@@@#",
"  +-@@@@@....@@@@#",
"  +-@@@@..@@..@@@#",
"  +-@@@..@@@@..@@#",
"  +-@@@@@@@@@@@@@#",
"  +-@@@@@@@@@@@@@#",
"  +###############",
"                  ",
"                  ",
"                  ",
"                  "};
