/* XPM */
static char * left_inactive_xpm[] = {
"4 1 3 1",
" 	c None",
"+	c #FFFFFF s inactive_hilight_2",
"@	c #CCC9C2 s inactive_color_2",
"@+@@"};
