/* XPM */
static char * maximize_active_xpm[] = {
"16 24 6 1",
"       c None",
".      c #000000 s active_border_color",
"+      c #FFFFFF s active_hilight_2",
"@      c #CCC9C2 s active_color_2",
"#      c #938E84 s active_shadow_2",
"-      c #000000",
"                ",
"                ",
"                ",
"                ",
"                ",
"                ",
"+++++++++++++++-",
"+@@@@@@@@@@@@@#-",
"+@@.........@@#-",
"+@@.........@@#-",
"+@@.@@@@@@@.@@#-",
"+@@.@@@@@@@.@@#-",
"+@@.@@@@@@@.@@#-",
"+@@.@@@@@@@.@@#-",
"+@@.@@@@@@@.@@#-",
"+@@.@@@@@@@.@@#-",
"+@@.........@@#-",
"+@@@@@@@@@@@@@#-",
"+##############-",
"----------------",
"                ",
"                ",
"                ",
"                "};

