/* XPM */
static char * shade_inactive_xpm[] = {
"16 24 6 1",
"       c None",
".      c #000000 s inactive_border_color",
"+      c #FFFFFF s inactive_hilight_2",
"@      c #CCC9C2 s inactive_color_2",
"#      c #938E84 s inactive_shadow_2",
"-      c #000000",
"                ",
"                ",
"                ",
"                ",
"                ",
"                ",
"+++++++++++++++-",
"+@@@@@@@@@@@@@#-",
"+@@@@@@@@@@@@@#-",
"+@@@.......@@@#-",
"+@@@.......@@@#-",
"+@@@@@@@@@@@@@#-",
"+@@@.......@@@#-",
"+@@@@.....@@@@#-",
"+@@@@@...@@@@@#-",
"+@@@@@@.@@@@@@#-",
"+@@@@@@@@@@@@@#-",
"+@@@@@@@@@@@@@#-",
"+##############-",
"----------------",
"                ",
"                ",
"                ",
"                "};
