/* XPM */
static char * stick_toggled_inactive_xpm[] = {
"16 24 6 1",
"       c None",
".      c #000000 s inactive_border_color",
"+      c #837F78 s inactive_shadow_2",
"@      c #B8B5AF s inactive_color_2",
"#      c #EBEAE8 s inactive_hilight_2",
"-      c #000000",
"                ",
"                ",
"                ",
"                ",
"                ",
"                ",
"++++++++++++++++",
"+--------------#",
"+-@@@@@@@@@@@@@#",
"+-@@@@@@@@@@@@@#",
"+-@@@@@....@@@@#",
"+-@@@@.@@@@.@@@#",
"+-@@@.@@..@@.@@#",
"+-@@@.@....@.@@#",
"+-@@@.@....@.@@#",
"+-@@@.@@..@@.@@#",
"+-@@@@.@@@@.@@@#",
"+-@@@@@....@@@@#",
"+-@@@@@@@@@@@@@#",
"+###############",
"                ",
"                ",
"                ",
"                "};
