/* XPM */
static char * bottom_left_inactive_xpm[] = {
"12 12 5 1",
" 	c None",
".	c #000000",
"+	c #FFFFFF",
"@	c #CCC9C2",
"#	c #938E84",
"@+@@        ",
"@+@@        ",
"@+@@        ",
"@+@@        ",
"@+@@        ",
"@+@@        ",
"@+@@        ",
"@+@@        ",
"@+@@@@@@@@@@",
"@+@@@@@@@@@@",
"@###########",
"............"};
