/* XPM */
static char * close_pressed_xpm[] = {
"18 24 5 1",
"       c None",
".      c #000000",
"+      c #837F78",
"@      c #B8B5AF",
"#      c #EBEAE8",
"                  ",
"                  ",
"                  ",
"                  ",
"                  ",
"                  ",
"  ++++++++++++++++",
"  +..............#",
"  +.@@@@@@@@@@@@@#",
"  +.@@@@@@@@@@@@@#",
"  +.@@@..@@@@..@@#",
"  +.@@@@..@@..@@@#",
"  +.@@@@@....@@@@#",
"  +.@@@@@@..@@@@@#",
"  +.@@@@@....@@@@#",
"  +.@@@@..@@..@@@#",
"  +.@@@..@@@@..@@#",
"  +.@@@@@@@@@@@@@#",
"  +.@@@@@@@@@@@@@#",
"  +###############",
"                  ",
"                  ",
"                  ",
"                  "};
