/* XPM */
static char * close_inactive_xpm[] = {
"18 24 5 1",
"       c None",
".      c #000000",
"+      c #FFFFFF",
"@      c #CCC9C2",
"#      c #938E84",
"                  ",
"                  ",
"                  ",
"                  ",
"                  ",
"                  ",
"  +++++++++++++++.",
"  +@@@@@@@@@@@@@#.",
"  +@@@@@@@@@@@@@#.",
"  +@@@..@@@@..@@#.",
"  +@@@@..@@..@@@#.",
"  +@@@@@....@@@@#.",
"  +@@@@@@..@@@@@#.",
"  +@@@@@....@@@@#.",
"  +@@@@..@@..@@@#.",
"  +@@@..@@@@..@@#.",
"  +@@@@@@@@@@@@@#.",
"  +@@@@@@@@@@@@@#.",
"  +##############.",
"  ................",
"                  ",
"                  ",
"                  ",
"                  "};
