/* XPM */
static char * shade_toggled_inactive_xpm[] = {
"16 24 5 1",
"       c None",
".      c #000000",
"+      c #FFFFFF",
"@      c #CCC9C2",
"#      c #938E84",
"                ",
"                ",
"                ",
"                ",
"                ",
"                ",
"+++++++++++++++.",
"+@@@@@@@@@@@@@#.",
"+@@@@@@@@@@@@@#.",
"+@@@.......@@@#.",
"+@@@.......@@@#.",
"+@@@@@@@@@@@@@#.",
"+@@@.......@@@#.",
"+@@@@.....@@@@#.",
"+@@@@@...@@@@@#.",
"+@@@@@@.@@@@@@#.",
"+@@@@@@@@@@@@@#.",
"+@@@@@@@@@@@@@#.",
"+##############.",
"................",
"                ",
"                ",
"                ",
"                "};
