/* XPM */
static char * shade_toggled_active_xpm[] = {
"16 24 5 1",
"       c None",
".      c #000000",
"+      c #837F78",
"@      c #B8B5AF",
"#      c #EBEAE8",
"                ",
"                ",
"                ",
"                ",
"                ",
"                ",
"++++++++++++++++",
"+..............#",
"+.@@@@@@@@@@@@@#",
"+.@@@@@@@@@@@@@#",
"+.@@@.......@@@#",
"+.@@@.......@@@#",
"+.@@@@@@@@@@@@@#",
"+.@@@.......@@@#",
"+.@@@@.....@@@@#",
"+.@@@@@...@@@@@#",
"+.@@@@@@.@@@@@@#",
"+.@@@@@@@@@@@@@#",
"+.@@@@@@@@@@@@@#",
"+###############",
"                ",
"                ",
"                ",
"                "};
