/* XPM */
static char * title_middle_inactive_xpm[] = {
"5 24 5 1",
" 	c None",
"+	c #FFFFFF",
"@	c #CCC9C2",
"#	c #938E84",
"$	c #8F8D88",
"@@@@@",
"+++++",
"@@@@@",
"@@@@@",
"$$$$$",
"$$$$$",
"$$$$$",
"$$$$$",
"$$$$$",
"$$$$$",
"$$$$$",
"$$$$$",
"$$$$$",
"$$$$$",
"$$$$$",
"$$$$$",
"$$$$$",
"$$$$$",
"$$$$$",
"$$$$$",
"$$$$$",
"$$$$$",
"@@@@@",
"@@@@@"};
